<svg width="67" height="68" viewBox="0 0 67 68" fill="none" xmlns="http://www.w3.org/2000/svg">
<rect width="66.6667" height="68" rx="10" fill="#F9F9F9"/>
<path d="M18.1667 23.1667C18.1667 21.9701 19.1367 21 20.3333 21H46.3333C47.53 21 48.5 21.97 48.5 23.1667L18.1667 23.1667Z" fill="#FE914D"/>
<path d="M33.3333 40.5C35.7266 40.5 37.6667 38.5599 37.6667 36.1667C37.6667 33.7734 35.7266 31.8333 33.3333 31.8333C30.9401 31.8333 29 33.7734 29 36.1667C29 38.5599 30.9401 40.5 33.3333 40.5Z" fill="#FE914D"/>
<path d="M16 27.5C16 26.3034 16.97 25.3333 18.1667 25.3333H48.5C49.6966 25.3333 50.6667 26.3034 50.6667 27.5V44.8333C50.6667 46.0299 49.6966 47 48.5 47H18.1667C16.97 47 16 46.03 16 44.8333V27.5ZM22.5 27.5C22.5 29.8932 20.5599 31.8333 18.1667 31.8333V40.5C20.5599 40.5 22.5 42.4401 22.5 44.8333H44.1667C44.1667 42.4401 46.1068 40.5 48.5 40.5V31.8333C46.1068 31.8333 44.1667 29.8932 44.1667 27.5H22.5Z" fill="#FE914D"/>
</svg>
