<svg width="18" height="18" viewBox="0 0 18 18" fill="none" xmlns="http://www.w3.org/2000/svg">
<path fill-rule="evenodd" clip-rule="evenodd" d="M3.9375 6.75C3.62684 6.75 3.375 7.00184 3.375 7.3125V16.3125C3.375 16.6232 3.62684 16.875 3.9375 16.875H14.0625C14.3732 16.875 14.625 16.6232 14.625 16.3125V7.3125C14.625 7.00184 14.3732 6.75 14.0625 6.75H11.8125C11.5018 6.75 11.25 6.49816 11.25 6.1875C11.25 5.87684 11.5018 5.625 11.8125 5.625H14.0625C14.9945 5.625 15.75 6.38052 15.75 7.3125V16.3125C15.75 17.2445 14.9945 18 14.0625 18H3.9375C3.00552 18 2.25 17.2445 2.25 16.3125V7.3125C2.25 6.38052 3.00552 5.625 3.9375 5.625H6.1875C6.49816 5.625 6.75 5.87684 6.75 6.1875C6.75 6.49816 6.49816 6.75 6.1875 6.75H3.9375Z" fill="white"/>
<path fill-rule="evenodd" clip-rule="evenodd" d="M8.60225 13.3352C8.82192 13.5549 9.17808 13.5549 9.39775 13.3352L12.7727 9.96025C12.9924 9.74058 12.9924 9.38442 12.7727 9.16475C12.5531 8.94508 12.1969 8.94508 11.9773 9.16475L9.5625 11.5795V1.6875C9.5625 1.37684 9.31066 1.125 9 1.125C8.68934 1.125 8.4375 1.37684 8.4375 1.6875V11.5795L6.02275 9.16475C5.80308 8.94508 5.44692 8.94508 5.22725 9.16475C5.00758 9.38442 5.00758 9.74058 5.22725 9.96025L8.60225 13.3352Z" fill="white"/>
</svg>
