<svg width="18" height="18" viewBox="0 0 18 18" fill="none" xmlns="http://www.w3.org/2000/svg">
<path d="M5.625 11.8125C5.625 11.5018 5.87684 11.25 6.1875 11.25H8.4375C8.74816 11.25 9 11.5018 9 11.8125C9 12.1232 8.74816 12.375 8.4375 12.375H6.1875C5.87684 12.375 5.625 12.1232 5.625 11.8125Z" fill="#CACACA"/>
<path d="M5.625 9.5625C5.625 9.25184 5.87684 9 6.1875 9H11.8125C12.1232 9 12.375 9.25184 12.375 9.5625C12.375 9.87316 12.1232 10.125 11.8125 10.125H6.1875C5.87684 10.125 5.625 9.87316 5.625 9.5625Z" fill="#CACACA"/>
<path d="M5.625 7.3125C5.625 7.00184 5.87684 6.75 6.1875 6.75H11.8125C12.1232 6.75 12.375 7.00184 12.375 7.3125C12.375 7.62316 12.1232 7.875 11.8125 7.875H6.1875C5.87684 7.875 5.625 7.62316 5.625 7.3125Z" fill="#CACACA"/>
<path d="M5.625 5.0625C5.625 4.75184 5.87684 4.5 6.1875 4.5H11.8125C12.1232 4.5 12.375 4.75184 12.375 5.0625C12.375 5.37316 12.1232 5.625 11.8125 5.625H6.1875C5.87684 5.625 5.625 5.37316 5.625 5.0625Z" fill="#CACACA"/>
<path d="M3.375 0H14.625C15.8676 0 16.875 1.00736 16.875 2.25V15.75C16.875 16.9926 15.8676 18 14.625 18H3.375C2.13236 18 1.125 16.9926 1.125 15.75V14.625H2.25V15.75C2.25 16.3713 2.75368 16.875 3.375 16.875H14.625C15.2463 16.875 15.75 16.3713 15.75 15.75V2.25C15.75 1.62868 15.2463 1.125 14.625 1.125H3.375C2.75368 1.125 2.25 1.62868 2.25 2.25V3.375H1.125V2.25C1.125 1.00736 2.13236 0 3.375 0Z" fill="#CACACA"/>
<path d="M1.125 5.625V5.0625C1.125 4.75184 1.37684 4.5 1.6875 4.5C1.99816 4.5 2.25 4.75184 2.25 5.0625V5.625H2.8125C3.12316 5.625 3.375 5.87684 3.375 6.1875C3.375 6.49816 3.12316 6.75 2.8125 6.75H0.5625C0.25184 6.75 0 6.49816 0 6.1875C0 5.87684 0.25184 5.625 0.5625 5.625H1.125Z" fill="#CACACA"/>
<path d="M1.125 9V8.4375C1.125 8.12684 1.37684 7.875 1.6875 7.875C1.99816 7.875 2.25 8.12684 2.25 8.4375V9H2.8125C3.12316 9 3.375 9.25184 3.375 9.5625C3.375 9.87316 3.12316 10.125 2.8125 10.125H0.5625C0.25184 10.125 0 9.87316 0 9.5625C0 9.25184 0.25184 9 0.5625 9H1.125Z" fill="#CACACA"/>
<path d="M1.125 12.375V11.8125C1.125 11.5018 1.37684 11.25 1.6875 11.25C1.99816 11.25 2.25 11.5018 2.25 11.8125V12.375H2.8125C3.12316 12.375 3.375 12.6268 3.375 12.9375C3.375 13.2482 3.12316 13.5 2.8125 13.5H0.5625C0.25184 13.5 0 13.2482 0 12.9375C0 12.6268 0.25184 12.375 0.5625 12.375H1.125Z" fill="#CACACA"/>
</svg>
