<svg width="63" height="60" viewBox="0 0 63 60" fill="none" xmlns="http://www.w3.org/2000/svg">
<g clip-path="url(#clip0_2_698)">
<path d="M0.0109967 9.26198C0.0109967 7.72556 0.0109967 6.19035 0.0109967 4.65635C0.0109967 0.971124 2.6196 -0.844308 6.16744 0.380478C14.2684 3.18516 22.3657 5.9983 30.4593 8.81989C38.6409 11.6656 46.8214 14.515 55.0006 17.368C59.5868 18.9661 62.0082 22.3034 62.0265 27.083C62.0265 29.3876 62.0265 31.6922 62.0265 33.9968C62.0265 37.4429 59.5427 39.2149 56.237 38.0843C47.3925 35.0598 38.5553 32.0159 29.7255 28.9528C21.4925 26.1118 13.2619 23.2649 5.03373 20.4119C1.36482 19.1436 0.0109931 17.3028 0.00732422 13.4618L0.0109967 9.26198Z" fill="#FE914D"/>
<path d="M0.0146756 50.6003C0.0146756 48.9769 -0.00733781 47.339 0.0146756 45.7265C0.0587025 43.1429 1.16304 41.1209 3.63589 40.1715C8.65128 38.2474 13.7291 36.4718 18.8875 34.9571C20.535 34.5092 22.2834 34.5852 23.8846 35.1745C31.3789 37.7618 38.8709 40.3539 46.3603 42.9508C47.0537 43.19 47.6334 43.5596 47.6041 44.364C47.5747 45.1685 46.9694 45.3823 46.3383 45.6033C32.778 50.3068 19.219 55.0103 5.66113 59.7137C2.68565 60.7428 0.0843849 58.8875 0.0146756 55.7459C-0.0183445 54.0319 0.0146756 52.3143 0.0146756 50.6003Z" fill="#FE914D"/>
</g>
<defs>
<clipPath id="clip0_2_698">
<rect width="62.0339" height="60" fill="white"/>
</clipPath>
</defs>
</svg>
